  0
SECTION
  2
HEADER
  9
$ACADVER
  1
AC1014
  9
$ACADMAINTVER
 70
     9
  9
$DWGCODEPAGE
  3
ANSI_1252
  9
$INSBASE
 10
0.0
 20
0.0
 30
0.0
  9
$EXTMIN
 10
-72.0
 20
-125.0
 30
0.0
  9
$EXTMAX
 10
4.0
 20
-99.0
 30
0.0
  9
$LIMMIN
 10
0.0
 20
0.0
  9
$LIMMAX
 10
12.0
 20
9.0
  9
$ORTHOMODE
 70
     0
  9
$REGENMODE
 70
     1
  9
$FILLMODE
 70
     1
  9
$QTEXTMODE
 70
     0
  9
$MIRRTEXT
 70
     1
  9
$DRAGMODE
 70
     2
  9
$LTSCALE
 40
1.0
  9
$OSMODE
 70
   511
  9
$ATTMODE
 70
     1
  9
$TEXTSIZE
 40
1.0
  9
$TRACEWID
 40
0.05
  9
$TEXTSTYLE
  7
STANDARD
  9
$CLAYER
  8
0
  9
$CELTYPE
  6
BYBLOCK
  9
$CECOLOR
 62
   256
  9
$CELTSCALE
 40
1.0
  9
$DELOBJ
 70
     1
  9
$DISPSILH
 70
     0
  9
$DIMSCALE
 40
1.0
  9
$DIMASZ
 40
0.18
  9
$DIMEXO
 40
0.0625
  9
$DIMDLI
 40
0.38
  9
$DIMRND
 40
0.0
  9
$DIMDLE
 40
0.0
  9
$DIMEXE
 40
0.18
  9
$DIMTP
 40
0.0
  9
$DIMTM
 40
0.0
  9
$DIMTXT
 40
0.18
  9
$DIMCEN
 40
0.09
  9
$DIMTSZ
 40
0.0
  9
$DIMTOL
 70
     0
  9
$DIMLIM
 70
     0
  9
$DIMTIH
 70
     1
  9
$DIMTOH
 70
     1
  9
$DIMSE1
 70
     0
  9
$DIMSE2
 70
     0
  9
$DIMTAD
 70
     0
  9
$DIMZIN
 70
     0
  9
$DIMBLK
  1

  9
$DIMASO
 70
     1
  9
$DIMSHO
 70
     1
  9
$DIMPOST
  1

  9
$DIMAPOST
  1

  9
$DIMALT
 70
     0
  9
$DIMALTD
 70
     2
  9
$DIMALTF
 40
25.4
  9
$DIMLFAC
 40
1.0
  9
$DIMTOFL
 70
     0
  9
$DIMTVP
 40
0.0
  9
$DIMTIX
 70
     0
  9
$DIMSOXD
 70
     0
  9
$DIMSAH
 70
     0
  9
$DIMBLK1
  1

  9
$DIMBLK2
  1

  9
$DIMSTYLE
  2
STANDARD
  9
$DIMCLRD
 70
     0
  9
$DIMCLRE
 70
     0
  9
$DIMCLRT
 70
     0
  9
$DIMTFAC
 40
1.0
  9
$DIMGAP
 40
0.09
  9
$DIMJUST
 70
     0
  9
$DIMSD1
 70
     0
  9
$DIMSD2
 70
     0
  9
$DIMTOLJ
 70
     1
  9
$DIMTZIN
 70
     0
  9
$DIMALTZ
 70
     0
  9
$DIMALTTZ
 70
     0
  9
$DIMFIT
 70
     5
  9
$DIMUPT
 70
     0
  9
$DIMUNIT
 70
     2
  9
$DIMDEC
 70
     4
  9
$DIMTDEC
 70
     4
  9
$DIMALTU
 70
     2
  9
$DIMALTTD
 70
     2
  9
$DIMTXSTY
  7
STANDARD
  9
$DIMAUNIT
 70
     0
  9
$LUNITS
 70
     2
  9
$LUPREC
 70
     4
  9
$SKETCHINC
 40
0.1
  9
$FILLETRAD
 40
0.5
  9
$AUNITS
 70
     0
  9
$AUPREC
 70
     0
  9
$MENU
  1
.
  9
$ELEVATION
 40
0.0
  9
$PELEVATION
 40
0.0
  9
$THICKNESS
 40
0.0
  9
$LIMCHECK
 70
     0
  9
$CHAMFERA
 40
0.0
  9
$CHAMFERB
 40
0.0
  9
$CHAMFERC
 40
0.0
  9
$CHAMFERD
 40
0.0
  9
$SKPOLY
 70
     0
  9
$TDCREATE
 40
2458086.487742072
  9
$TDUPDATE
 40
2458086.487869514
  9
$TDINDWG
 40
0.000000162
  9
$TDUSRTIMER
 40
2458086.487742361
  9
$USRTIMER
 70
     1
  9
$ANGBASE
 50
0.0
  9
$ANGDIR
 70
     0
  9
$PDMODE
 70
     0
  9
$PDSIZE
 40
0.0
  9
$PLINEWID
 40
0.0
  9
$COORDS
 70
     1
  9
$SPLFRAME
 70
     0
  9
$SPLINETYPE
 70
     6
  9
$SPLINESEGS
 70
     8
  9
$ATTDIA
 70
     0
  9
$ATTREQ
 70
     1
  9
$HANDLING
 70
     1
  9
$HANDSEED
  5
C4
  9
$SURFTAB1
 70
     6
  9
$SURFTAB2
 70
     6
  9
$SURFTYPE
 70
     6
  9
$SURFU
 70
     6
  9
$SURFV
 70
     6
  9
$UCSNAME
  2

  9
$UCSORG
 10
0.0
 20
0.0
 30
0.0
  9
$UCSXDIR
 10
1.0
 20
0.0
 30
0.0
  9
$UCSYDIR
 10
0.0
 20
1.0
 30
0.0
  9
$PUCSNAME
  2

  9
$PUCSORG
 10
0.0
 20
0.0
 30
0.0
  9
$PUCSXDIR
 10
1.0
 20
0.0
 30
0.0
  9
$PUCSYDIR
 10
0.0
 20
1.0
 30
0.0
  9
$USERI1
 70
     0
  9
$USERI2
 70
     0
  9
$USERI3
 70
     0
  9
$USERI4
 70
     0
  9
$USERI5
 70
     0
  9
$USERR1
 40
0.0
  9
$USERR2
 40
0.0
  9
$USERR3
 40
0.0
  9
$USERR4
 40
0.0
  9
$USERR5
 40
0.0
  9
$WORLDVIEW
 70
     1
  9
$SHADEDGE
 70
     3
  9
$SHADEDIF
 70
    70
  9
$TILEMODE
 70
     1
  9
$MAXACTVP
 70
    64
  9
$PINSBASE
 10
0.0
 20
0.0
 30
0.0
  9
$PLIMCHECK
 70
     0
  9
$PEXTMIN
 10
1.000000000000000E+20
 20
1.000000000000000E+20
 30
1.000000000000000E+20
  9
$PEXTMAX
 10
-1.000000000000000E+20
 20
-1.000000000000000E+20
 30
-1.000000000000000E+20
  9
$PLIMMIN
 10
0.0
 20
0.0
  9
$PLIMMAX
 10
0.0
 20
0.0
  9
$UNITMODE
 70
     0
  9
$VISRETAIN
 70
     1
  9
$PLINEGEN
 70
     0
  9
$PSLTSCALE
 70
     1
  9
$TREEDEPTH
 70
  3020
  9
$PICKSTYLE
 70
     1
  9
$CMLSTYLE
  2
STANDARD
  9
$CMLJUST
 70
     0
  9
$CMLSCALE
 40
1.0
  9
$PROXYGRAPHICS
 70
     1
  9
$MEASUREMENT
 70
     0
  0
ENDSEC
  0
SECTION
  2
CLASSES
  0
CLASS
  1
ACDBDICTIONARYWDFLT
  2
AcDbDictionaryWithDefault
  3
ObjectDBX Classes
 90
        0
280
     0
281
     0
  0
CLASS
  1
MATERIAL
  2
AcDbMaterial
  3
ObjectDBX Classes
 90
     1153
280
     0
281
     0
  0
CLASS
  1
SCALE
  2
AcDbScale
  3
ObjectDBX Classes
 90
     1153
280
     0
281
     0
  0
CLASS
  1
VISUALSTYLE
  2
AcDbVisualStyle
  3
ObjectDBX Classes
 90
     4095
280
     0
281
     0
  0
CLASS
  1
TABLESTYLE
  2
AcDbTableStyle
  3
ObjectDBX Classes
 90
     4095
280
     0
281
     0
  0
CLASS
  1
MLEADERSTYLE
  2
AcDbMLeaderStyle
  3
ACDB_MLEADERSTYLE_CLASS
 90
     4095
280
     0
281
     0
  0
CLASS
  1
SUN
  2
AcDbSun
  3
SCENEOE
 90
     1153
280
     0
281
     0
  0
CLASS
  1
RASTERVARIABLES
  2
AcDbRasterVariables
  3
ISM
 90
        0
280
     0
281
     0
  0
CLASS
  1
XRECORD
  2
AcDbXrecord
  3
ObjectDBX Classes
 90
        0
280
     0
281
     0
  0
CLASS
  1
LWPOLYLINE
  2
AcDbPolyline
  3
ObjectDBX Classes
 90
        0
280
     0
281
     1
  0
CLASS
  1
HATCH
  2
AcDbHatch
  3
ObjectDBX Classes
 90
        0
280
     0
281
     1
  0
ENDSEC
  0
SECTION
  2
TABLES
  0
TABLE
  2
VPORT
  5
8
330
0
100
AcDbSymbolTable
 70
     1
  0
VPORT
  5
28
330
8
100
AcDbSymbolTableRecord
100
AcDbViewportTableRecord
  2
*ACTIVE
 70
     0
 10
0.0
 20
0.0
 11
1.0
 21
1.0
 12
-23.63969554154498
 22
-113.3809357547899
 13
0.0
 23
0.0
 14
0.5
 24
0.5
 15
0.5
 25
0.5
 16
0.0
 26
0.0
 36
1.0
 17
0.0
 27
0.0
 37
0.0
 40
87.99365149190162
 41
1.503496503496504
 42
50.0
 43
0.0
 44
0.0
 50
0.0
 51
0.0
 71
    16
 72
   100
 73
     1
 74
     3
 75
     0
 76
     0
 77
     0
 78
     0
  0
ENDTAB
  0
TABLE
  2
LTYPE
  5
5
330
0
100
AcDbSymbolTable
 70
     1
  0
LTYPE
  5
14
330
5
100
AcDbSymbolTableRecord
100
AcDbLinetypeTableRecord
  2
BYBLOCK
 70
     0
  3

 72
    65
 73
     0
 40
0.0
  0
LTYPE
  5
15
330
5
100
AcDbSymbolTableRecord
100
AcDbLinetypeTableRecord
  2
BYLAYER
 70
     0
  3

 72
    65
 73
     0
 40
0.0
  0
LTYPE
  5
16
330
5
100
AcDbSymbolTableRecord
100
AcDbLinetypeTableRecord
  2
CONTINUOUS
 70
     0
  3
Solid line
 72
    65
 73
     0
 40
0.0
  0
ENDTAB
  0
TABLE
  2
LAYER
  5
2
330
0
100
AcDbSymbolTable
 70
     1
  0
LAYER
  5
10
330
2
100
AcDbSymbolTableRecord
100
AcDbLayerTableRecord
  2
0
 70
     0
 62
     7
  6
CONTINUOUS
  0
ENDTAB
  0
TABLE
  2
STYLE
  5
3
330
0
100
AcDbSymbolTable
 70
     1
  0
STYLE
  5
11
330
3
100
AcDbSymbolTableRecord
100
AcDbTextStyleTableRecord
  2
STANDARD
 70
     0
 40
0.0
 41
1.0
 50
0.0
 71
     0
 42
1.0
  3
ARIAL.TTF
  4

  0
ENDTAB
  0
TABLE
  2
VIEW
  5
6
330
0
100
AcDbSymbolTable
 70
     0
  0
ENDTAB
  0
TABLE
  2
UCS
  5
7
330
0
100
AcDbSymbolTable
 70
     0
  0
ENDTAB
  0
TABLE
  2
APPID
  5
9
330
0
100
AcDbSymbolTable
 70
     1
  0
APPID
  5
12
330
9
100
AcDbSymbolTableRecord
100
AcDbRegAppTableRecord
  2
ACAD
 70
     0
  0
ENDTAB
  0
TABLE
  2
DIMSTYLE
  5
A
330
0
100
AcDbSymbolTable
 70
     1
  0
DIMSTYLE
105
27
330
A
100
AcDbSymbolTableRecord
100
AcDbDimStyleTableRecord
  2
STANDARD
 70
     0
  3

  4

  5

  6

  7

 40
1.0
 41
0.18
 42
0.0625
 43
0.38
 44
0.18
 45
0.0
 46
0.0
 47
0.0
 48
0.0
140
0.18
141
0.09
142
0.0
143
25.4
144
1.0
145
0.0
146
1.0
147
0.09
 71
     0
 72
     0
 73
     1
 74
     1
 75
     0
 76
     0
 77
     0
 78
     0
170
     0
171
     2
172
     0
173
     0
174
     0
175
     0
176
     0
177
     0
178
     0
270
     2
271
     4
272
     4
273
     2
274
     2
340
11
275
     0
280
     0
281
     0
282
     0
283
     1
284
     0
285
     0
286
     0
287
     3
288
     0
  0
ENDTAB
  0
TABLE
  2
BLOCK_RECORD
  5
1
330
0
100
AcDbSymbolTable
 70
     2
  0
BLOCK_RECORD
  5
1D
330
1
100
AcDbSymbolTableRecord
100
AcDbBlockTableRecord
  2
*MODEL_SPACE
  0
BLOCK_RECORD
  5
1B
330
1
100
AcDbSymbolTableRecord
100
AcDbBlockTableRecord
  2
*PAPER_SPACE
  0
BLOCK_RECORD
  5
2A
330
1
100
AcDbSymbolTableRecord
100
AcDbBlockTableRecord
  2
FUSION090
  0
BLOCK_RECORD
  5
53
330
1
100
AcDbSymbolTableRecord
100
AcDbBlockTableRecord
  2
FUSION105
  0
ENDTAB
  0
ENDSEC
  0
SECTION
  2
BLOCKS
  0
BLOCK
  5
9F
330
1D
100
AcDbEntity
  8
0
100
AcDbBlockBegin
  2
*MODEL_SPACE
 70
     0
 10
0.0
 20
0.0
 30
0.0
  3
*MODEL_SPACE
  1

  0
ENDBLK
  5
A0
330
1D
100
AcDbEntity
  8
0
100
AcDbBlockEnd
  0
BLOCK
  5
A1
330
1B
100
AcDbEntity
 67
     1
  8
0
100
AcDbBlockBegin
  2
*PAPER_SPACE
 70
     0
 10
0.0
 20
0.0
 30
0.0
  3
*PAPER_SPACE
  1

  0
ENDBLK
  5
A2
330
1B
100
AcDbEntity
 67
     1
  8
0
100
AcDbBlockEnd
  0
BLOCK
  5
29
330
2A
100
AcDbEntity
  8
0
100
AcDbBlockBegin
  2
FUSION090
 70
     0
 10
0.0
 20
0.0
 30
0.0
  3
FUSION090
  1

  0
ARC
  5
2B
330
2A
100
AcDbEntity
  8
0
 62
     0
100
AcDbCircle
 10
-3.0
 20
-122.0
 30
0.0
 40
3.0
100
AcDbArc
 50
270.0
 51
340.5287793655
  0
ARC
  5
2C
330
2A
100
AcDbEntity
  8
0
 62
     0
100
AcDbCircle
 10
-3.0
 20
-122.0
 30
0.0
 40
3.0
100
AcDbArc
 50
340.5287793655
 51
0.0
  0
LINE
  5
2D
330
2A
100
AcDbEntity
  8
0
 62
     0
100
AcDbLine
 10
-69.0
 20
-125.0
 30
0.0
 11
-3.0
 21
-125.0
 31
0.0
  0
LINE
  5
2E
330
2A
100
AcDbEntity
  8
0
 62
     0
100
AcDbLine
 10
-72.0
 20
-118.0
 30
0.0
 11
-70.0
 21
-118.0
 31
0.0
  0
ARC
  5
2F
330
2A
100
AcDbEntity
  8
0
 62
     0
100
AcDbCircle
 10
-70.0
 20
-119.0
 30
0.0
 40
1.0
100
AcDbArc
 50
0.0
 51
90.0
  0
LINE
  5
30
330
2A
100
AcDbEntity
  8
0
 62
     0
100
AcDbLine
 10
-72.0
 20
-122.0
 30
0.0
 11
-72.0
 21
-118.0
 31
0.0
  0
LINE
  5
31
330
2A
100
AcDbEntity
  8
0
 62
     0
100
AcDbLine
 10
-69.0
 20
-122.0
 30
0.0
 11
-69.0
 21
-119.0
 31
0.0
  0
ARC
  5
32
330
2A
100
AcDbEntity
  8
0
 62
     0
100
AcDbCircle
 10
-69.0
 20
-122.0
 30
0.0
 40
3.0
100
AcDbArc
 50
180.0
 51
270.0
  0
LINE
  5
33
330
2A
100
AcDbEntity
  8
0
 62
     0
100
AcDbLine
 10
-69.0
 20
-122.0
 30
0.0
 11
-60.25
 21
-122.0
 31
0.0
  0
ARC
  5
34
330
2A
100
AcDbEntity
  8
0
 62
     0
100
AcDbCircle
 10
-58.0
 20
-122.0
 30
0.0
 40
2.25
100
AcDbArc
 50
0.0
 51
180.0
  0
LINE
  5
35
330
2A
100
AcDbEntity
  8
0
 62
     0
100
AcDbLine
 10
-55.75
 20
-122.0
 30
0.0
 11
-5.0
 21
-122.0
 31
0.0
  0
LINE
  5
36
330
2A
100
AcDbEntity
  8
0
 62
     0
100
AcDbLine
 10
-5.0
 20
-122.0
 30
0.0
 11
-5.0
 21
-120.677050983
 31
0.0
  0
LINE
  5
37
330
2A
100
AcDbEntity
  8
0
 62
     0
100
AcDbLine
 10
0.0
 20
-122.0
 30
0.0
 11
0.0
 21
-118.4
 31
0.0
  0
ARC
  5
38
330
2A
100
AcDbEntity
  8
0
 62
     0
100
AcDbCircle
 10
-3.5
 20
-119.0
 30
0.0
 40
2.25
100
AcDbArc
 50
45.3253904356
 51
228.189685104
  0
LINE
  5
39
330
2A
100
AcDbEntity
  8
0
 62
     0
100
AcDbLine
 10
-1.91807079804
 20
-117.4
 30
0.0
 11
-1.0
 21
-117.4
 31
0.0
  0
ARC
  5
3A
330
2A
100
AcDbEntity
  8
0
 62
     0
100
AcDbCircle
 10
-1.0
 20
-118.4
 30
0.0
 40
1.0
100
AcDbArc
 50
0.0
 51
90.0
  0
CIRCLE
  5
3B
330
2A
100
AcDbEntity
  8
0
 62
     0
100
AcDbCircle
 10
-3.5
 20
-119.0
 30
0.0
 40
1.0
  0
ARC
  5
3C
330
2A
100
AcDbEntity
  8
0
 62
     0
100
AcDbCircle
 10
-58.0
 20
-122.0
 30
0.0
 40
1.0
100
AcDbArc
 50
180.0
 51
0.0
  0
ARC
  5
3D
330
2A
100
AcDbEntity
  8
0
 62
     0
100
AcDbCircle
 10
-58.0
 20
-122.0
 30
0.0
 40
1.0
100
AcDbArc
 50
0.0
 51
180.0
  0
ARC
  5
3E
330
2A
100
AcDbEntity
  8
0
 62
     0
100
AcDbCircle
 10
-3.0
 20
-108.0
 30
0.0
 40
3.0
100
AcDbArc
 50
270.0
 51
340.5287793655
  0
ARC
  5
3F
330
2A
100
AcDbEntity
  8
0
 62
     0
100
AcDbCircle
 10
-3.0
 20
-108.0
 30
0.0
 40
3.0
100
AcDbArc
 50
340.5287793655
 51
0.0
  0
LINE
  5
40
330
2A
100
AcDbEntity
  8
0
 62
     0
100
AcDbLine
 10
-69.0
 20
-111.0
 30
0.0
 11
-3.0
 21
-111.0
 31
0.0
  0
LINE
  5
41
330
2A
100
AcDbEntity
  8
0
 62
     0
100
AcDbLine
 10
-72.0
 20
-104.0
 30
0.0
 11
-70.0
 21
-104.0
 31
0.0
  0
ARC
  5
42
330
2A
100
AcDbEntity
  8
0
 62
     0
100
AcDbCircle
 10
-70.0
 20
-105.0
 30
0.0
 40
1.0
100
AcDbArc
 50
0.0
 51
90.0
  0
LINE
  5
43
330
2A
100
AcDbEntity
  8
0
 62
     0
100
AcDbLine
 10
-72.0
 20
-108.0
 30
0.0
 11
-72.0
 21
-104.0
 31
0.0
  0
LINE
  5
44
330
2A
100
AcDbEntity
  8
0
 62
     0
100
AcDbLine
 10
-69.0
 20
-108.0
 30
0.0
 11
-69.0
 21
-105.0
 31
0.0
  0
ARC
  5
45
330
2A
100
AcDbEntity
  8
0
 62
     0
100
AcDbCircle
 10
-69.0
 20
-108.0
 30
0.0
 40
3.0
100
AcDbArc
 50
180.0
 51
270.0
  0
LINE
  5
46
330
2A
100
AcDbEntity
  8
0
 62
     0
100
AcDbLine
 10
-69.0
 20
-108.0
 30
0.0
 11
-60.25
 21
-108.0
 31
0.0
  0
ARC
  5
47
330
2A
100
AcDbEntity
  8
0
 62
     0
100
AcDbCircle
 10
-58.0
 20
-108.0
 30
0.0
 40
2.25
100
AcDbArc
 50
0.0
 51
180.0
  0
LINE
  5
48
330
2A
100
AcDbEntity
  8
0
 62
     0
100
AcDbLine
 10
-55.75
 20
-108.0
 30
0.0
 11
-5.0
 21
-108.0
 31
0.0
  0
LINE
  5
49
330
2A
100
AcDbEntity
  8
0
 62
     0
100
AcDbLine
 10
-5.0
 20
-108.0
 30
0.0
 11
-5.0
 21
-106.677050983
 31
0.0
  0
LINE
  5
4A
330
2A
100
AcDbEntity
  8
0
 62
     0
100
AcDbLine
 10
0.0
 20
-108.0
 30
0.0
 11
0.0
 21
-104.4
 31
0.0
  0
ARC
  5
4B
330
2A
100
AcDbEntity
  8
0
 62
     0
100
AcDbCircle
 10
-3.5
 20
-105.0
 30
0.0
 40
2.25
100
AcDbArc
 50
45.3253904356
 51
228.189685104
  0
LINE
  5
4C
330
2A
100
AcDbEntity
  8
0
 62
     0
100
AcDbLine
 10
-1.91807079804
 20
-103.4
 30
0.0
 11
-1.0
 21
-103.4
 31
0.0
  0
ARC
  5
4D
330
2A
100
AcDbEntity
  8
0
 62
     0
100
AcDbCircle
 10
-1.0
 20
-104.4
 30
0.0
 40
1.0
100
AcDbArc
 50
0.0
 51
90.0
  0
CIRCLE
  5
4E
330
2A
100
AcDbEntity
  8
0
 62
     0
100
AcDbCircle
 10
-3.5
 20
-105.0
 30
0.0
 40
1.0
  0
ARC
  5
4F
330
2A
100
AcDbEntity
  8
0
 62
     0
100
AcDbCircle
 10
-58.0
 20
-108.0
 30
0.0
 40
1.0
100
AcDbArc
 50
180.0
 51
0.0
  0
ARC
  5
50
330
2A
100
AcDbEntity
  8
0
 62
     0
100
AcDbCircle
 10
-58.0
 20
-108.0
 30
0.0
 40
1.0
100
AcDbArc
 50
0.0
 51
180.0
  0
ENDBLK
  5
51
330
2A
100
AcDbEntity
  8
0
100
AcDbBlockEnd
  0
BLOCK
  5
52
330
53
100
AcDbEntity
  8
0
100
AcDbBlockBegin
  2
FUSION105
 70
     0
 10
0.0
 20
0.0
 30
0.0
  3
FUSION105
  1

  0
ARC
  5
54
330
53
100
AcDbEntity
  8
0
 62
     0
100
AcDbCircle
 10
-65.0
 20
-102.0
 30
0.0
 40
3.0
100
AcDbArc
 50
90.0
 51
160.528779366
  0
ARC
  5
55
330
53
100
AcDbEntity
  8
0
 62
     0
100
AcDbCircle
 10
-65.0
 20
-102.0
 30
0.0
 40
3.0
100
AcDbArc
 50
160.528779366
 51
180.0
  0
LINE
  5
56
330
53
100
AcDbEntity
  8
0
 62
     0
100
AcDbLine
 10
1.0
 20
-99.0
 30
0.0
 11
-65.0
 21
-99.0
 31
0.0
  0
LINE
  5
57
330
53
100
AcDbEntity
  8
0
 62
     0
100
AcDbLine
 10
4.0
 20
-106.0
 30
0.0
 11
2.0
 21
-106.0
 31
0.0
  0
ARC
  5
58
330
53
100
AcDbEntity
  8
0
 62
     0
100
AcDbCircle
 10
2.0
 20
-105.0
 30
0.0
 40
1.0
100
AcDbArc
 50
180.0
 51
270.0
  0
LINE
  5
59
330
53
100
AcDbEntity
  8
0
 62
     0
100
AcDbLine
 10
4.0
 20
-102.0
 30
0.0
 11
4.0
 21
-106.0
 31
0.0
  0
LINE
  5
5A
330
53
100
AcDbEntity
  8
0
 62
     0
100
AcDbLine
 10
1.0
 20
-102.0
 30
0.0
 11
1.0
 21
-105.0
 31
0.0
  0
ARC
  5
5B
330
53
100
AcDbEntity
  8
0
 62
     0
100
AcDbCircle
 10
1.0
 20
-102.0
 30
0.0
 40
3.0
100
AcDbArc
 50
0.0
 51
90.0
  0
LINE
  5
5C
330
53
100
AcDbEntity
  8
0
 62
     0
100
AcDbLine
 10
1.0
 20
-102.0
 30
0.0
 11
-7.75
 21
-102.0
 31
0.0
  0
ARC
  5
5D
330
53
100
AcDbEntity
  8
0
 62
     0
100
AcDbCircle
 10
-10.0
 20
-102.0
 30
0.0
 40
2.25
100
AcDbArc
 50
180.0
 51
0.0
  0
LINE
  5
5E
330
53
100
AcDbEntity
  8
0
 62
     0
100
AcDbLine
 10
-12.25
 20
-102.0
 30
0.0
 11
-63.0
 21
-102.0
 31
0.0
  0
LINE
  5
5F
330
53
100
AcDbEntity
  8
0
 62
     0
100
AcDbLine
 10
-63.0
 20
-102.0
 30
0.0
 11
-63.0
 21
-103.322949017
 31
0.0
  0
LINE
  5
60
330
53
100
AcDbEntity
  8
0
 62
     0
100
AcDbLine
 10
-68.0
 20
-102.0
 30
0.0
 11
-68.0
 21
-105.6
 31
0.0
  0
ARC
  5
61
330
53
100
AcDbEntity
  8
0
 62
     0
100
AcDbCircle
 10
-64.5
 20
-105.0
 30
0.0
 40
2.25
100
AcDbArc
 50
225.325390436
 51
48.1896851042
  0
LINE
  5
62
330
53
100
AcDbEntity
  8
0
 62
     0
100
AcDbLine
 10
-66.081929202
 20
-106.6
 30
0.0
 11
-67.0
 21
-106.6
 31
0.0
  0
ARC
  5
63
330
53
100
AcDbEntity
  8
0
 62
     0
100
AcDbCircle
 10
-67.0
 20
-105.6
 30
0.0
 40
1.0
100
AcDbArc
 50
180.0
 51
270.0
  0
CIRCLE
  5
64
330
53
100
AcDbEntity
  8
0
 62
     0
100
AcDbCircle
 10
-64.5
 20
-105.0
 30
0.0
 40
1.0
  0
ARC
  5
65
330
53
100
AcDbEntity
  8
0
 62
     0
100
AcDbCircle
 10
-10.0
 20
-102.0
 30
0.0
 40
1.0
100
AcDbArc
 50
0.0
 51
180.0
  0
ARC
  5
66
330
53
100
AcDbEntity
  8
0
 62
     0
100
AcDbCircle
 10
-10.0
 20
-102.0
 30
0.0
 40
1.0
100
AcDbArc
 50
180.0
 51
0.0
  0
ARC
  5
67
330
53
100
AcDbEntity
  8
0
 62
     0
100
AcDbCircle
 10
-65.0
 20
-116.0
 30
0.0
 40
3.0
100
AcDbArc
 50
90.0
 51
160.528779366
  0
ARC
  5
68
330
53
100
AcDbEntity
  8
0
 62
     0
100
AcDbCircle
 10
-65.0
 20
-116.0
 30
0.0
 40
3.0
100
AcDbArc
 50
160.528779366
 51
180.0
  0
LINE
  5
69
330
53
100
AcDbEntity
  8
0
 62
     0
100
AcDbLine
 10
1.0
 20
-113.0
 30
0.0
 11
-65.0
 21
-113.0
 31
0.0
  0
LINE
  5
6A
330
53
100
AcDbEntity
  8
0
 62
     0
100
AcDbLine
 10
4.0
 20
-120.0
 30
0.0
 11
2.0
 21
-120.0
 31
0.0
  0
ARC
  5
6B
330
53
100
AcDbEntity
  8
0
 62
     0
100
AcDbCircle
 10
2.0
 20
-119.0
 30
0.0
 40
1.0
100
AcDbArc
 50
180.0
 51
270.0
  0
LINE
  5
6C
330
53
100
AcDbEntity
  8
0
 62
     0
100
AcDbLine
 10
4.0
 20
-116.0
 30
0.0
 11
4.0
 21
-120.0
 31
0.0
  0
LINE
  5
6D
330
53
100
AcDbEntity
  8
0
 62
     0
100
AcDbLine
 10
1.0
 20
-116.0
 30
0.0
 11
1.0
 21
-119.0
 31
0.0
  0
ARC
  5
6E
330
53
100
AcDbEntity
  8
0
 62
     0
100
AcDbCircle
 10
1.0
 20
-116.0
 30
0.0
 40
3.0
100
AcDbArc
 50
0.0
 51
90.0
  0
LINE
  5
6F
330
53
100
AcDbEntity
  8
0
 62
     0
100
AcDbLine
 10
1.0
 20
-116.0
 30
0.0
 11
-7.75
 21
-116.0
 31
0.0
  0
ARC
  5
70
330
53
100
AcDbEntity
  8
0
 62
     0
100
AcDbCircle
 10
-10.0
 20
-116.0
 30
0.0
 40
2.25
100
AcDbArc
 50
180.0
 51
0.0
  0
LINE
  5
71
330
53
100
AcDbEntity
  8
0
 62
     0
100
AcDbLine
 10
-12.25
 20
-116.0
 30
0.0
 11
-63.0
 21
-116.0
 31
0.0
  0
LINE
  5
72
330
53
100
AcDbEntity
  8
0
 62
     0
100
AcDbLine
 10
-63.0
 20
-116.0
 30
0.0
 11
-63.0
 21
-117.322949017
 31
0.0
  0
LINE
  5
73
330
53
100
AcDbEntity
  8
0
 62
     0
100
AcDbLine
 10
-68.0
 20
-116.0
 30
0.0
 11
-68.0
 21
-119.6
 31
0.0
  0
ARC
  5
74
330
53
100
AcDbEntity
  8
0
 62
     0
100
AcDbCircle
 10
-64.5
 20
-119.0
 30
0.0
 40
2.25
100
AcDbArc
 50
225.325390436
 51
48.1896851042
  0
LINE
  5
75
330
53
100
AcDbEntity
  8
0
 62
     0
100
AcDbLine
 10
-66.081929202
 20
-120.6
 30
0.0
 11
-67.0
 21
-120.6
 31
0.0
  0
ARC
  5
76
330
53
100
AcDbEntity
  8
0
 62
     0
100
AcDbCircle
 10
-67.0
 20
-119.6
 30
0.0
 40
1.0
100
AcDbArc
 50
180.0
 51
270.0
  0
CIRCLE
  5
77
330
53
100
AcDbEntity
  8
0
 62
     0
100
AcDbCircle
 10
-64.5
 20
-119.0
 30
0.0
 40
1.0
  0
ARC
  5
78
330
53
100
AcDbEntity
  8
0
 62
     0
100
AcDbCircle
 10
-10.0
 20
-116.0
 30
0.0
 40
1.0
100
AcDbArc
 50
0.0
 51
180.0
  0
ARC
  5
79
330
53
100
AcDbEntity
  8
0
 62
     0
100
AcDbCircle
 10
-10.0
 20
-116.0
 30
0.0
 40
1.0
100
AcDbArc
 50
180.0
 51
0.0
  0
ENDBLK
  5
7A
330
53
100
AcDbEntity
  8
0
100
AcDbBlockEnd
  0
ENDSEC
  0
SECTION
  2
ENTITIES
  0
INSERT
  5
7B
330
1D
100
AcDbEntity
  8
0
 62
     0
100
AcDbBlockReference
  2
FUSION090
 10
0.0
 20
0.0
 30
0.0
  0
INSERT
  5
7C
330
1D
100
AcDbEntity
  8
0
 62
     0
100
AcDbBlockReference
  2
FUSION105
 10
0.0
 20
0.0
 30
0.0
  0
ENDSEC
  0
SECTION
  2
OBJECTS
  0
DICTIONARY
  5
C
330
0
100
AcDbDictionary
  3
ACAD_GROUP
350
D
  3
ACAD_IMAGE_VARS
350
C2
  3
ACAD_MLINESTYLE
350
17
  3
ACAD_SCALELIST
350
7D
  3
APPDATA
350
C0
  3
DWGPROPS
350
C3
  0
DICTIONARY
  5
D
102
{ACAD_REACTORS
330
C
102
}
330
C
100
AcDbDictionary
  0
RASTERVARIABLES
  5
C2
102
{ACAD_REACTORS
330
C
102
}
330
C
100
AcDbRasterVariables
 90
        0
 70
     1
 71
     1
 72
     0
  0
DICTIONARY
  5
17
102
{ACAD_REACTORS
330
C
102
}
330
C
100
AcDbDictionary
  3
STANDARD
350
18
  0
DICTIONARY
  5
7D
102
{ACAD_REACTORS
330
C
102
}
330
C
100
AcDbDictionary
  0
DICTIONARY
  5
C0
102
{ACAD_REACTORS
330
C
102
}
330
C
100
AcDbDictionary
  0
XRECORD
  5
C3
102
{ACAD_REACTORS
330
C
102
}
330
C
100
AcDbXrecord
  1
DWGPROPS COOKIE
  2

  3

  4

  6

  7

  8

  9

300
=
301
=
302
=
303
=
304
=
305
=
306
=
307
=
308
=
309
=
 40
0.0
 41
2458086.487742072
 42
2458086.487869514
  1

 90
        0
  0
MLINESTYLE
  5
18
102
{ACAD_REACTORS
330
17
102
}
330
17
100
AcDbMlineStyle
  2
Standard
 70
     0
  3

 62
   256
 51
90.0
 52
90.0
 71
     2
 49
0.5
 62
   256
  6
BYLAYER
 49
-0.5
 62
   256
  6
BYLAYER
  0
ENDSEC
  0
EOF
